<?xml version="1.0" encoding="UTF-8" standalone="no"?>
<!-- Created with Inkscape (http://www.inkscape.org/) -->

<svg
   xmlns:dc="http://purl.org/dc/elements/1.1/"
   xmlns:cc="http://creativecommons.org/ns#"
   xmlns:rdf="http://www.w3.org/1999/02/22-rdf-syntax-ns#"
   xmlns:svg="http://www.w3.org/2000/svg"
   xmlns="http://www.w3.org/2000/svg"
   xmlns:sodipodi="http://sodipodi.sourceforge.net/DTD/sodipodi-0.dtd"
   xmlns:inkscape="http://www.inkscape.org/namespaces/inkscape"
   id="svg2"
   version="1.1"
   inkscape:version="0.91 r13725"
   xml:space="preserve"
   width="800"
   height="376"
   viewBox="0 0 800 376.00001"
   sodipodi:docname="Logo Gennevilliers.svg"><metadata
     id="metadata8"><rdf:RDF><cc:Work
         rdf:about=""><dc:format>image/svg+xml</dc:format><dc:type
           rdf:resource="http://purl.org/dc/dcmitype/StillImage" /><dc:title></dc:title></cc:Work></rdf:RDF></metadata><defs
     id="defs6" /><sodipodi:namedview
     pagecolor="#ffffff"
     bordercolor="#666666"
     borderopacity="1"
     objecttolerance="10"
     gridtolerance="10"
     guidetolerance="10"
     inkscape:pageopacity="0"
     inkscape:pageshadow="2"
     inkscape:window-width="1440"
     inkscape:window-height="788"
     id="namedview4"
     showgrid="false"
     inkscape:zoom="0.5317353"
     inkscape:cx="49.518377"
     inkscape:cy="300.5049"
     inkscape:window-x="0"
     inkscape:window-y="1"
     inkscape:window-maximized="1"
     inkscape:current-layer="g10" /><g
     id="g10"
     inkscape:groupmode="layer"
     inkscape:label="Logo Gennevilliers"
     transform="matrix(1.25,0,0,-1.25,-35.433062,411.43302)"><g
       id="g6680"><path
         inkscape:connector-curvature="0"
         id="path750"
         style="fill:#0e88d3;fill-opacity:1;fill-rule:nonzero;stroke:none"
         d="m 438.73421,63.248224 c 0,-0.0911 -0.0927,-0.45577 -0.18474,-0.5477 -0.36441,0.0929 -1.64165,0.37107 -2.09806,0.46388 -0.0913,0.0918 -0.27313,0.36651 -0.36441,0.36651 -0.27385,0.0927 -1.00557,-0.17931 -1.27942,-0.26936 -1.64382,0.005 -2.64721,0.46554 -3.65277,-0.0794 -0.092,0 -0.18474,-0.45577 -0.36803,-0.45475 -0.45642,-0.0901 -2.00896,-0.0848 -2.46465,0.008 -0.092,0 -0.36441,0.27464 -0.5477,0.18459 -0.18257,0 -0.54915,-0.45482 -0.73244,-0.45482 -0.45641,0.002 -1.91622,0.37194 -2.37264,0.37368 -0.45714,0.002 -1.64454,-0.0856 -2.10168,-0.0847 -0.63826,0.003 -2.64722,0.1007 -3.28692,0.10251 -1.00412,0.004 -4.20121,-0.35137 -5.20677,-0.34774 -1.82639,0.006 -2.46175,1.0131 -4.29103,0.28805 -0.36586,-0.18105 -1.10047,-1.36635 -1.55761,-1.36454 -0.45642,-0.18098 -1.9155,0.64572 -2.4632,0.55646 -0.27313,8.7e-4 -0.73244,-0.63673 -1.00629,-0.72773 -1.09685,-0.27022 -10.69173,-1.79074 -11.87913,-1.96911 -0.73172,-0.0893 -3.01452,-0.0812 -3.74624,-0.26131 -0.27312,8.7e-4 -0.64115,-0.637609 -0.915,-0.727733 -0.27385,9.42e-4 -1.00195,0.643043 -1.27652,0.552043 -0.36586,-0.0901 -1.19103,-1.183419 -1.64817,-1.364464 -0.27457,-0.181045 -1.46198,-0.177495 -1.82784,-0.267546 -0.63898,-0.180176 -2.55955,-0.630506 -3.10797,-0.902617 -0.18257,0 -0.54915,-0.45475 -0.64116,-0.45475 -0.54842,-0.181045 -2.00968,-0.541324 -2.55955,-0.722369 -0.45714,-0.272038 -1.83001,-1.088951 -2.37843,-1.269996 -0.45642,-0.181117 -2.01041,-0.267546 -2.46682,-0.357671 -0.0906,8.7e-4 -0.27458,-0.181045 -0.36659,-0.271966 -0.82227,-0.362959 -3.47455,-1.358236 -4.29755,-1.721268 0,0 0.0913,-0.274574 -7.3e-4,-0.273704 -0.54842,-0.09005 -2.37481,-0.174887 -3.01451,-0.355932 -0.27458,-0.09005 -1.00847,-1.000566 -1.37432,-1.090617 -0.45787,-0.272908 -2.10169,-0.541324 -2.65084,-0.630506 -0.0906,0 -0.27457,-0.272981 -0.36513,-0.272981 -0.45714,-0.08911 -1.9184,0.0063 -2.37626,-0.265663 -0.18257,-0.09107 0.0891,-0.822273 -0.0942,-1.00426 -0.82445,-0.636737 -8.32054,-3.077693 -9.14426,-3.531573 -0.27458,-0.181045 -0.91646,-1.00158 -1.19103,-1.182625 -0.45787,-0.363829 -2.10386,-1.088951 -2.65301,-1.452779 -0.2753,-0.364771 -1.1012,-1.549134 -1.46778,-1.912963 -0.36585,-0.363901 -1.73872,-1.08982 -2.10531,-1.453721 -0.36658,-0.455692 -1.1932,-1.913833 -1.5605,-2.369597 -0.45859,-0.728599 -1.64745,-1.18161 -1.19538,-2.278602 0,-0.182784 1.18451,-1.00868 1.18451,-1.10047 0.46004,1.094239 2.01402,1.363597 2.28787,1.453649 0.36514,0.181914 1.37143,0.543062 1.646,0.725049 0.092,0.09099 0.2753,0.455692 0.36731,0.546758 0.27385,0.09092 2.55955,0.81329 2.8334,0.812348 0.36586,0.09012 1.46198,0.0865 1.82711,0.176626 0.27385,0.09012 1.18886,0.634997 1.46415,0.725991 0.63899,0.180175 2.46538,0.08295 3.0138,0.263997 0.27457,0.09005 1.00701,0.726788 1.28086,0.725918 0.64043,0.08911 2.46537,-0.373681 3.10436,-0.284499 0.54842,0.09005 1.92201,1.089748 2.37843,1.270793 0.45787,0.181045 1.73728,0.633259 2.10314,0.72418 0.73099,0.08831 2.83122,-0.01014 3.56221,0.170395 0.18257,-8.69e-4 0.36731,0.546685 0.45932,0.546685 0.54842,0.180176 2.37409,0.08288 2.92251,0.263925 0.18329,0.09005 0.27675,1.003318 0.46076,1.094239 0.54843,0.272111 2.28426,0.448664 2.7414,0.538716 0.36513,0.09005 1.4627,0.543135 1.82711,0.450403 0.45714,-0.0017 1.64237,-0.735772 2.09879,-0.737511 0.5477,0.08918 2.10314,0.906095 2.65156,0.995277 0.18257,0.09092 0.91283,-0.0027 1.09612,-0.0036 0.91428,0.180103 3.56439,0.90153 4.38739,1.264562 0.18329,0.09005 0.45859,0.545743 0.64116,0.636737 0.45714,0.09005 2.00895,-0.09809 2.46609,-0.008 0.36586,0.09005 1.00702,0.72686 1.28159,0.817781 0.63971,0.272111 5.57407,0.985569 6.30434,0.982816 0.27385,0.09099 1.0954,-0.09454 1.36997,-0.0044 0.27457,0.181914 0.82517,0.819593 1.0983,0.909644 0.45786,0.09012 1.91767,-0.189014 2.37408,-0.09896 0.18329,-9.42e-4 0.5506,0.545743 0.73244,0.545743 0.45787,0.08926 1.82567,-0.280008 2.28281,-0.190825 0.36513,-8.7e-4 1.09829,0.544004 1.37214,0.634997 0.27385,-9.41e-4 0.91284,-0.0036 1.18741,0.08744 0.27385,0.08998 1.00629,0.635795 1.37215,0.634925 0.82227,0.08831 3.47021,-0.103454 4.38304,-0.197997 0.0913,0 0.54697,-0.36651 0.72882,-0.367379 0.27457,0.09005 1.09757,0.453011 1.37142,0.543135 0.64043,0.08918 2.5581,0.1738 3.10652,0.354845 0.27458,0.09107 1.00629,0.544947 1.28159,0.635071 3.38183,0.993393 5.29732,0.256752 7.39756,0.157789 0.45642,-9.42e-4 4.93075,-0.01594 5.02275,-0.01666 0.27385,0.09099 1.09757,0.726861 1.37215,0.817782 0.63971,0.08925 6.29926,-0.659847 7.02881,-0.845384 2.73777,-0.557407 3.47093,0.07933 6.11887,-0.111496 0.91283,-0.0036 3.46804,-0.560015 4.38159,-0.654631 0.45642,-7.97e-4 2.00968,0.359482 2.46682,0.357599 0.18257,-7.97e-4 0.36369,-0.366437 0.54625,-0.367307 0.5477,-0.0018 2.19225,0.08375 2.73995,-0.0087 0.27385,-8.7e-4 1.00266,-0.460184 1.27724,-0.461053 0.45569,-0.0928 3.19708,0.354918 5.20314,-0.565449 0.0913,0 0.18184,-0.457502 0.2724,-0.457502 0.45642,-0.0017 1.64527,0.451272 2.01041,0.358467 0.3644,-0.09259 3.37458,-1.198635 3.74043,-1.291295 1.09468,-0.185464 4.38015,-0.744682 5.47627,-0.840095 0.82155,-0.09367 3.28692,-0.193506 4.01719,-0.28718 0.18256,-8.69e-4 0.63825,-0.367451 0.72954,-0.367451 0.5477,-0.0936 1.91695,-0.0063 2.46537,-0.008 0.0913,-9.42e-4 0.54697,-0.367524 0.72954,-0.368393 1.00339,-0.185537 4.01719,-0.378173 5.0213,-0.56458 0.0913,0 0.45497,-0.366509 0.54698,-0.367378 0.72954,-0.09367 6.02614,-0.293338 6.66439,-0.387085 0.45642,-0.09266 1.55109,-0.553712 1.91623,-0.645647 0.63898,-0.09367 8.49006,-0.668034 9.12977,-0.6697 0.36585,-0.0019 1.28013,0.361148 1.64527,0.359337 0.73026,0.08926 3.10508,-0.0094 3.83534,-0.104324 0.36513,-8.69e-4 1.27652,-0.369262 1.64237,-0.370131 0.63971,-0.0026 2.65012,0.355859 3.2891,0.354048 0.27385,-8.69e-4 1.82421,-0.736641 2.82833,-0.740191 1.09612,-0.0036 4.47505,-0.01521 5.57117,0.07317 0.27458,0.08998 1.18886,0.544004 1.46343,0.634056 2.19297,0.357671 4.38304,-0.01449 4.84091,0.07491 0.36436,0.09012 1.09826,0.909644 1.46346,0.908775 0.4571,0.08918 1.8256,-0.462864 2.3733,-0.555596 0.1819,-8.69e-4 0.5485,0.271966 0.731,0.271097 0.5484,0.181045 2.2843,0.35767 2.8327,0.538715 0.091,-9.41e-4 0.1833,0.364699 0.2753,0.363829 0.3659,0.09012 1.37,-0.0044 1.6438,0.08643 0.1826,0.0902 0.6412,0.545816 0.9157,0.63594 0.5485,0.180973 2.1923,0.175684 2.7407,0.35586 0.4572,0.181045 1.2831,1.366277 1.7409,1.638316 0.2746,0.181842 1.37,0.178292 1.6446,0.359337 0.2745,0.181987 0.7339,0.911383 1.0084,1.00158 0.3659,0.181045 1.6446,0.268343 2.0104,0.45033 0.3666,0.363901 1.2838,1.639113 1.6504,2.003014 0.184,0.273778 0.915,0.544947 1.099,0.818724 0.1833,0.272908 0.6426,1.276226 0.7361,1.549931 -0.4572,0.0928 -2.0097,0.09817 -2.4654,0.281891 -0.2739,0.183653 -0.7267,1.098731 -1.0005,1.190521 -0.8216,0.185537 -3.3826,-0.992523 -3.9317,-1.173568 -0.3651,-0.09005 -1.4605,-0.0865 -1.8271,-0.268417 -0.7303,-0.08831 -2.7421,-0.904355 -3.3818,-0.901675 -0.5485,-0.08918 -2.1901,0.28095 -2.8298,0.374551 -0.3644,0.0018 -1.5533,-0.268416 -2.009,-0.175684 -0.091,0.09186 -0.2724,0.73128 -0.4549,0.73215 -0.3645,8.69e-4 -1.4627,-0.634926 -1.9199,-0.724181 -0.3658,-0.09005 -4.02007,-0.44323 -4.47649,-0.441347 -0.54842,-0.09012 -2.19297,-0.449461 -2.74139,-0.356729 -0.18185,7.97e-4 -0.45352,0.73215 -0.63609,0.733019 -1.82494,0.280008 -7.30555,0.02391 -8.85809,0.120407 -1.00412,0.09541 -3.9259,0.379043 -4.93002,0.382592 -0.18329,0 -0.73244,-0.362959 -1.00629,-0.36209 -0.27385,0.09186 -0.91066,0.733091 -1.27579,0.73483 -0.45569,0.183798 -2.10024,0.0072 -2.55738,0.008 -0.18256,0.09194 -1.54964,0.735844 -1.82349,0.828504 -1.82494,0.553857 -4.83801,0.655573 -6.84551,1.118364 -0.27385,0.0928 -2.09807,0.829446 -2.37119,0.921309 -3.74262,0.560087 -7.85108,0.939927 -8.76319,1.033601 -0.63971,0.0027 -2.55811,0.0087 -3.28765,0.102585 -0.45641,0.09266 -1.82421,0.553785 -2.37336,0.647386 -0.45569,0.0928 -2.09879,0.28095 -2.64649,0.373754 -0.0913,8.69e-4 -0.45497,0.366505 -0.54697,0.367375 -0.5477,0.0928 -2.00823,0.006 -2.55666,0.009 -0.45641,0.0928 -2.09951,0.37187 -2.64721,0.37375 l -0.18257,-0.091 c -1.00484,0.004 -3.92735,-0.16953 -4.93219,0.0167 -0.45641,0.0927 -1.63875,1.28427 -2.09516,1.377 -0.63971,0.0928 -2.74067,-0.35673 -3.38038,-0.35412 -0.36586,9.4e-4 -1.55254,0.005 -1.91767,0.0972 -0.0906,0.0919 -0.45569,0.36658 -0.63826,0.36745 -0.45569,0.0928 -2.00823,0.18989 -2.46537,0.28269 -0.45569,0.0927 -1.82349,0.64478 -2.27991,0.64659 -0.092,0 -0.0927,-0.45663 -0.18474,-0.54755 -0.82227,0.003 -7.2092,1.39388 -8.03147,1.39656 -0.36586,0.002 -1.55399,-0.26842 -1.9184,-0.17569 -0.36513,0.0928 -1.55036,0.73578 -2.00678,0.82851 -0.45569,0.18459 -1.73438,0.0972 -2.19152,0.18995 -0.18184,9.5e-4 -0.54625,0.18467 -0.63826,0.18467 z" /><path
         inkscape:connector-curvature="0"
         id="path756"
         style="fill:#33b540;fill-opacity:1;fill-rule:nonzero;stroke:none"
         d="m 476.97391,137.64077 c 0.18473,0.54756 0.73751,2.09843 1.0128,2.55419 0.18402,0.27291 1.09902,1.00064 1.19176,1.36534 0.092,0.18285 -0.0884,0.82234 -0.0877,1.0052 0.002,0.54748 0.0985,2.19116 -0.0826,2.64866 -0.18185,0.27472 -1.45981,0.37006 -1.55037,0.7357 -0.0898,0.45663 0.73606,1.55008 0.73751,2.00671 0.092,0.36477 -0.0869,1.36983 -0.0855,1.73547 0.001,0.36571 0.28472,3.19542 0.28545,3.46919 0.002,0.63949 -0.26661,2.28397 -0.26444,2.83246 7.3e-4,0.091 0.36659,0.27204 0.36659,0.36383 0.0913,-8.7e-4 -0.18257,8.7e-4 -0.27385,8.7e-4 -0.36441,0.36658 -0.54191,2.01106 -0.17025,3.65387 0.0927,0.45569 1.19175,1.4564 1.1932,1.91296 0.004,1.00513 -2.00534,1.28514 -1.18016,2.19659 0.18401,0.18192 0.915,0.36209 1.09757,0.45207 -0.18184,0.27472 -0.81865,1.00781 -0.90849,1.28166 -0.0898,0.45743 0.18836,1.82646 0.18981,2.28309 7.3e-4,0.27378 -0.17822,1.27884 -0.26805,1.55356 -0.0906,0.45663 -0.72592,1.55442 -0.72447,1.92006 -0.0891,0.63942 0.19126,2.64787 0.28472,3.28641 7.2e-4,0.27378 -0.17822,1.27884 0.005,1.64361 0.0927,0.18285 0.73316,0.54581 0.82517,0.72773 0.18329,0.3647 0.18691,1.55181 0.18909,2.00837 -0.0898,0.36572 -0.63536,1.28159 -0.63392,1.64636 -0.0898,0.45663 -0.0848,1.73547 0.007,2.1921 7.2e-4,0.36477 0.6426,1.09337 0.64333,1.36708 -0.0898,0.36578 -0.81938,0.91602 -0.90921,1.19066 -0.0906,0.36564 -0.0855,1.73554 0.007,2.10024 0.0913,0.27385 0.82445,0.81959 0.91646,1.0925 0.0927,0.45664 0.0971,1.91746 0.007,2.37496 -0.0898,0.27378 -0.54552,0.73215 -0.63681,0.915 -0.27095,0.64036 0.46004,0.82047 0.73679,1.73279 7.2e-4,0.18279 -0.18112,0.5485 -0.27168,0.64036 -0.27022,0.91414 -1.08308,3.83933 -1.17146,4.75252 -0.0906,0.0919 0.27457,0.27291 0.36658,0.3639 0.0927,0.36564 0.0956,1.36983 0.18836,1.64361 0.18401,0.36477 0.82589,1.09337 0.82662,1.36722 0.002,0.73041 -0.7223,2.65047 -0.81141,3.28989 0.004,1.09612 1.47285,3.46565 0.65565,4.74723 -0.0906,0.27378 -1.00267,0.6421 -1.09395,0.91682 -0.18039,0.36564 -0.44483,3.38088 -0.26081,3.74478 0.2753,0.3647 1.46633,1.36534 1.55906,1.8211 7.2e-4,0.27465 -0.91066,0.82583 -1.00194,1.00861 -0.36296,0.64036 1.09974,0.90878 1.01063,1.64013 -0.0898,0.45656 -1.18233,1.37425 -1.27289,1.73902 -0.0898,0.36564 -0.0862,1.55355 0.007,1.91868 0.27675,0.8201 1.64889,1.63803 1.01281,2.64359 -0.18184,0.18402 -1.09395,0.36948 -1.27579,0.5535 -0.0913,0.27457 0.0942,1.09467 0.004,1.27869 0,0.18184 -0.63825,0.2753 -0.63825,0.3673 10e-4,0.5477 0.28181,2.19008 0.37382,2.64722 0.092,0.27385 0.82445,0.63536 0.82517,0.91066 0,0.18184 -0.72881,0.54987 -0.81937,0.73243 7.2e-4,0.1833 0.27675,0.82155 0.46004,1.0034 0,0 0.18184,-0.0913 0.18184,-7.3e-4 0.18474,0.36513 0.37093,1.45981 0.37238,1.82566 7.2e-4,0.18185 -0.36441,0.36659 -0.36441,0.45715 10e-4,0.36585 0.27964,1.46053 0.18908,1.82566 -0.18184,0.2753 -1.09395,0.64333 -1.27506,0.9179 -0.0913,0.18257 0.18546,1.00412 0.004,1.09613 -0.27385,0.27457 -1.55182,0.27892 -1.73366,0.55349 -0.18184,0.18329 -0.0877,1.09612 0.004,1.36997 0.0935,0.5477 1.36997,-0.004 1.64382,-0.006 0.45642,-0.001 0.18691,1.36925 0.37093,1.73438 0.0927,0.18184 0.54987,0.45497 0.73316,0.63681 -1.18378,1.1903 -1.44821,3.9317 -1.71699,5.39368 -0.0913,0.27457 -0.36151,1.28013 -0.26878,1.64454 0.092,0.27385 1.00701,0.81865 1.28159,1.09178 -0.18257,7.2e-4 -0.73027,0.002 -0.91283,0.004 -0.27385,-0.0913 -1.18886,-0.45352 -1.46271,-0.36151 -0.27312,0.0927 -0.54407,1.00701 -0.54335,1.18958 0.092,0.27313 0.73316,0.91066 1.00701,0.90993 0.45787,0.0898 1.6431,-0.37092 2.00823,-0.28109 0.27458,0.18184 0.27748,1.00412 0.2782,1.27796 0.004,1.00412 -1.55037,0.55278 -2.64359,1.1041 -0.0913,0.092 0.001,0.54842 0.001,0.6397 0.0913,0 0.36586,-7.2e-4 0.45641,-7.2e-4 0.002,0.36441 -0.26805,1.55326 -0.35861,1.91912 0,0.0906 0.27458,0.18112 0.27458,0.2724 0.001,0.27385 -0.36079,1.27941 -0.26806,1.55399 0.092,0.18184 1.00629,0.45279 1.00629,0.54408 -0.18329,0.0913 -0.82155,0.0942 -1.00339,0.27747 -0.0913,0.18256 0.0935,0.91283 -0.0884,1.0954 -0.18111,0.27529 -1.27724,0.46148 -1.45835,0.73606 -0.18185,0.27457 -0.0869,1.27869 0.0963,1.55181 0.18257,0.18184 1.27869,0.27023 1.46271,0.45207 0.27457,0.36368 0.18836,1.55182 0.37165,1.91695 0.092,0.18184 0.82227,0.0877 0.91356,0.17894 0.0927,0.27385 -0.0884,0.82228 -0.0877,1.00484 -0.54842,-0.0891 -2.10168,-0.44917 -2.65011,-0.44772 -0.36513,10e-4 -1.09395,0.64333 -1.3678,0.73534 0.0927,0.27385 0.83097,2.55375 1.01426,2.73704 0,0.0906 0.45642,0.0891 0.45787,0.18112 0.18256,0.18184 1.37577,2.09517 1.55978,2.36829 -0.18184,0.092 -0.54697,0.2753 -0.63753,0.36731 0.18256,0.18184 0.64188,0.72882 0.73389,1.00267 0,0.0906 -0.45497,0.54914 -0.45497,0.64043 -0.003,-0.73027 -0.73389,-1.00194 -1.3736,-1.18306 -0.36585,0.002 -1.46198,-0.0862 -1.64527,-0.35934 -0.27457,-0.18184 -0.10287,-3.46949 -0.1956,-3.74333 -7.3e-4,-0.36586 -0.64551,-2.00679 -0.64985,-3.46877 0.18184,0 0.54842,0.18112 0.6397,0.18112 0.0906,-7.2e-4 0.36441,-0.0927 0.36441,-0.18329 0.0891,-0.54915 -0.007,-2.28353 -0.19198,-2.73995 -0.0913,-0.27384 -0.91284,-0.0884 -1.18741,-0.17821 -0.54842,-0.27241 -0.19706,-4.47433 -0.38324,-5.02203 0,-0.18257 -1.46633,-2.00388 -1.46633,-2.00388 0.18184,-0.092 0.8201,-0.27675 1.00194,-0.46004 0.36368,-0.54987 -0.2782,-1.46053 -0.64478,-1.64238 -0.18256,-0.0898 -0.9121,0.0949 -1.0954,0.004 -0.18256,7.2e-4 -0.45714,-0.18112 -0.54914,-0.27168 0.45641,-7.2e-4 1.82783,0.26805 2.10023,-0.007 0.36514,-0.18402 0.63392,-1.55472 0.81503,-2.01186 -0.0906,7.3e-4 -2.19007,0.37238 -2.37264,0.19054 -1.46632,-1.36418 -0.56146,-3.74189 -0.47307,-4.65544 0.0217,-0.16374 2.81021,0.78677 2.47044,-1.21711 -0.39411,-2.32917 -2.49435,0.15141 -2.53782,-0.11302 -0.0826,-0.50206 -0.21879,-1.05773 -0.39918,-1.59021 0,0 -0.36514,-0.0913 -0.36514,-0.18184 -0.18546,-0.82155 -0.29993,-7.57941 -0.57667,-8.40023 -0.0927,-0.36514 -0.91718,-1.45836 -1.00992,-1.91405 -0.002,-0.36586 0.81793,-1.0983 0.90777,-1.46416 0.0891,-0.54842 0.084,-2.28353 -0.007,-2.92251 -0.0913,-0.27385 -0.73316,-0.81937 -0.73389,-1.09322 -0.0927,-0.36514 0.54336,-1.37215 0.45062,-1.73656 -0.002,-0.54842 -0.91935,-1.91477 -1.01208,-2.37119 -0.002,-0.45714 0.63319,-1.73728 0.72302,-2.19514 0.0913,-0.18184 0.0884,-1.00412 -0.004,-1.1861 -7.3e-4,-0.27465 -0.55132,-0.91139 -0.55205,-1.18611 -0.0935,-0.54755 0.084,-2.28309 0.0819,-2.83064 -7.3e-4,-0.18286 -0.0942,-0.82228 -0.0949,-1.00419 -0.003,-0.73128 0.44772,-2.74147 0.35354,-3.38096 -0.0927,-0.54755 -0.91935,-1.9147 -1.01208,-2.37046 -0.0927,-0.45664 0.0848,-1.91833 -0.007,-2.37496 -0.092,-0.27378 -0.64188,-1.00238 -0.6426,-1.2763 0.0898,-0.36549 0.90921,-0.9158 0.99904,-1.28144 0.4499,-2.19384 0.26081,-4.11043 -0.38324,-5.47844 0,0 -0.27385,0.0927 -0.27385,8.7e-4 -7.3e-4,-0.18192 1.16929,-5.20916 1.07801,-5.30015 -10e-4,-0.54843 -0.82879,-2.18942 -0.83097,-2.73698 -0.0934,-0.5477 0.35861,-2.10205 0.35717,-2.64967 -0.002,-0.54843 -0.9295,-4.56344 -0.93167,-5.11107 -0.001,-0.73048 0.35644,-3.01437 0.26226,-3.74471 -7.3e-4,-0.18285 -0.45932,-0.72954 -0.46004,-1.00332 -7.3e-4,-0.18285 0.45496,-0.45844 0.45424,-0.64036 0.0898,-0.4575 -0.0971,-2.00924 -0.0992,-2.46587 -0.001,-0.45664 0.25936,-4.29328 0.34847,-4.74992 0,-0.18278 0.63898,-0.36738 0.63826,-0.55023 -10e-4,-0.36564 -0.46149,-1.45988 -0.64478,-1.73286 -0.092,-0.18279 -0.54915,-0.27197 -0.64043,-0.36296 0.18184,-0.27472 0.81865,-1.00774 0.90848,-1.28159 0.0898,-0.4575 0.17605,-2.01011 0.1746,-2.46675 -7.3e-4,-0.0909 -0.18329,-0.0909 -0.18329,-0.18191 -0.64551,-1.91564 -0.75997,-8.67299 -0.5832,-10.59132 -10e-4,-0.36564 0.27023,-1.18885 0.26805,-1.55362 -0.001,-0.54843 -0.007,-2.46588 0.0811,-3.10537 0.0906,-0.36564 0.45207,-1.37157 0.54263,-1.73721 0.1775,-1.55268 -0.83459,-3.92401 -0.84401,-6.38997 0.0906,-0.54849 0.72447,-2.01105 0.81431,-2.55955 0.0891,-0.63941 -0.66144,-6.57369 -0.57233,-7.21304 0.0898,-0.45663 0.63391,-1.64541 0.63246,-2.01105 -10e-4,-0.27378 -0.45931,-0.91146 -0.46076,-1.09424 -0.28182,-2.37329 1.36128,-2.74422 0.53103,-5.20749 -7.2e-4,-0.18184 -0.82299,-0.45388 -1.00701,-0.72679 -0.0927,-0.36477 -0.3702,-1.55181 -0.37165,-2.00845 -0.001,-0.36477 0.36006,-1.46162 0.35933,-1.82726 0.0884,-0.82234 0.0804,-3.28822 0.16953,-4.01863 -0.002,-0.45663 0.54118,-1.73728 0.63101,-2.19384 -10e-4,-0.5485 -0.92877,-4.92828 -0.93167,-5.4767 -7.2e-4,-0.27385 0.81938,-0.82496 0.90921,-1.09881 -7.2e-4,-0.36556 -0.55204,-1.18523 -0.55277,-1.55087 -10e-4,-0.63942 1.18234,-1.46531 0.54046,-2.37583 -0.18329,-0.27377 -1.18958,-0.63586 -1.55544,-0.81691 1.99954,-2.837816 2.36032,-4.208516 0.34123,-7.215716 0.27385,-0.0919 0.9121,-0.36832 1.00266,-0.55125 0.2724,-0.45743 0.26733,-2.01011 0.35717,-2.55861 0.0906,-0.0909 0.54552,-0.45837 0.54552,-0.64123 0.0891,-0.45663 -0.006,-1.82646 0.084,-2.1921 0.18112,-0.36564 1.81697,-2.83688 1.90681,-3.20252 0.0898,-0.36564 0.17677,-1.73546 0.44917,-2.10204 0.36513,-0.36651 1.91477,-0.91943 2.37191,-1.01223 0.18257,-8.7e-4 0.36731,0.54675 0.54987,0.63767 0.45642,0.18105 2.01113,0.54133 2.37699,0.81337 1.64889,1.36446 2.20601,4.37616 2.48566,5.92797 0.092,0.45663 0.27964,1.7346 0.37237,2.0993 0.18474,0.54762 1.01136,2.09676 1.1961,2.64424 0.0927,0.36484 0.005,1.55268 0.0978,1.91745 0.092,0.18286 0.64115,0.63761 0.64115,0.82054 0.0942,0.54755 -0.26515,2.1921 -0.2637,2.740596 0.0927,0.54748 0.82734,1.9147 0.92007,2.37126 0.0927,0.27298 -0.0869,1.00426 0.004,1.18712 0.092,0.18184 0.82445,0.72773 0.82517,1.00143 0.0927,0.45663 -0.45062,1.91927 -0.35644,2.3759 0.092,0.27378 1.09612,0.17923 1.27942,0.36122 0.18329,0.18184 0.27747,1.00325 0.27747,1.27702 -0.0891,0.36564 -1.90826,2.65504 -1.99882,3.02068 -0.0898,0.36557 0.46149,1.45988 0.46294,1.82458 0.18547,0.82147 0.65492,4.74723 0.38542,5.93522 0,0.18278 -1.27434,1.19146 -0.99905,1.921 0.18402,0.27371 0.82518,0.81952 0.8259,1.00151 -0.0898,0.36557 -1.00049,1.0996 -1.18233,1.46524 7.2e-4,0.18286 -0.0884,0.91414 0.004,1.09605 0.18401,0.18191 0.915,0.54487 0.91573,0.72773 0.002,0.63847 -0.72302,2.28577 -0.62957,2.92432 0.0927,0.3647 1.09975,1.0925 1.28376,1.4572 0.0913,0.18192 -0.0898,0.73041 -0.17966,0.9132 -0.0906,0.18285 -0.63754,0.6413 -0.72737,0.82502 0.001,0.54756 0.64623,2.18942 0.55639,2.73785 -0.0906,0.36477 -1.18378,1.00773 -1.27434,1.28252 -0.0906,0.27378 0.46076,1.18524 0.36948,1.36896 -0.0898,0.27371 -0.91139,0.36738 -1.09395,0.36825 z" /><path
         inkscape:connector-curvature="0"
         id="path758"
         style="fill:#0e88d3;fill-opacity:1;fill-rule:nonzero;stroke:none"
         d="m 449.45999,75.541104 c -0.27385,8.7e-4 -1.09395,0.36926 -1.27652,0.27826 -0.2753,-0.18191 -0.3702,-1.1861 -0.6455,-1.45901 -0.27457,-0.18191 -1.46126,-0.26935 -1.73583,-0.4504 -0.36658,-0.27291 -1.28376,-1.36628 -1.46705,-1.73097 -0.092,-0.18199 0.0891,-0.73049 -0.003,-0.73049 -2.10386,-0.99701 -3.10725,-0.71969 -4.83729,0.74737 -0.0913,0.091 -0.18039,0.63949 -0.36295,0.73128 -0.36441,0.18379 -1.6431,0.27913 -2.09952,0.37281 0.0927,0.3647 0.37093,1.55094 0.37238,1.91658 0.0935,0.82133 0.20865,7.76147 0.3021,8.58287 0.0942,0.73041 0.6484,2.64613 0.65058,3.28554 10e-4,0.36564 -0.45207,1.46256 -0.54191,1.92007 -0.17822,1.27883 0.0145,3.37914 -0.16518,5.11468 -0.0891,0.63942 -0.63101,2.55948 -0.62884,3.1981 0.001,0.27458 0.36803,0.72947 0.36876,0.91225 10e-4,0.54756 0.0978,2.100306 0.007,2.647866 -0.0906,0.27472 -0.63608,1.0988 -0.63463,1.37251 7.2e-4,0.18293 0.54987,0.54574 0.64188,0.72867 0.18401,0.54661 -0.71505,4.56785 -0.7136,5.11642 -0.0906,0.27385 0.18546,0.91225 0.18618,1.1861 0.0942,0.63942 -0.0826,2.46588 -0.0811,3.10537 0,0.0919 0.36659,0.3647 0.36659,0.45569 0.002,0.54756 -0.35789,2.01012 -0.35644,2.55774 0.003,0.63949 0.46656,2.73879 0.37745,3.37828 7.2e-4,0.27378 -0.91139,0.73309 -1.00195,1.00774 10e-4,0.18285 0.73317,0.63673 0.73389,0.91058 0.092,0.36564 0.18764,1.55262 0.007,1.91826 -0.0898,0.36578 -1.00049,1.09873 -0.99977,1.46444 7.3e-4,0.27378 0.91718,1.00151 1.00847,1.3662 0.0927,0.18286 0.20212,5.66137 0.20285,5.84423 -0.0906,0.45656 -0.35862,1.91919 -0.35789,2.37583 0.002,0.27385 0.36875,0.82046 0.36948,1.00324 0.001,0.54763 -0.17532,2.28397 -0.17315,2.92251 0.0927,0.36572 0.37093,1.64274 0.37165,2.09937 0.002,0.5485 -0.2666,2.01019 -0.35644,2.46682 7.3e-4,0.18279 0.29052,4.93089 0.19996,5.20554 -0.0906,0.18285 -0.72882,0.45844 -0.8201,0.5503 7.2e-4,0.27371 0.0949,0.91327 0.18546,1.00412 0.001,0.18199 0.45859,0.45489 0.45859,0.54589 0,0 0.56799,5.93413 0.56943,6.11706 -0.0906,0.4575 -1.27361,1.46524 -1.27289,1.92187 7.3e-4,0.27371 1.0983,0.72686 1.09975,1.00151 0.18401,0.63855 0.19126,2.82971 0.19415,3.4692 0,0 0.0898,-0.18286 0.0898,-0.27465 -0.0862,1.46162 -0.0725,5.84502 -0.3405,7.30758 -0.0898,0.5485 -1.18089,2.01287 -1.27,2.65229 7.3e-4,0.27472 0.82517,1.00245 0.91791,1.36722 0.0934,0.54755 -0.0833,2.28302 -0.0811,2.83151 -0.0913,0.27378 -0.36296,0.82315 -0.27096,1.00513 0.0927,0.3647 0.8259,1.09337 0.82662,1.36701 0.0927,0.5477 -0.0848,2.00939 -0.17387,2.55788 -0.0913,0.18286 -0.27312,0.5485 -0.2724,0.73128 0.0927,0.45664 0.91935,1.73199 1.01208,2.27955 0.0935,0.45663 -0.17604,1.91818 -0.26515,2.37582 0,0.091 -0.36513,0.27458 -0.36513,0.36651 0.002,0.27385 -1.90319,4.20664 -1.62861,4.47969 0.36658,0.36463 1.64744,1.09069 1.74017,1.54732 0.18474,0.45569 -0.35933,1.73634 -0.35788,2.19297 0.0956,1.09518 1.39532,7.5752 1.21711,8.67126 -0.0906,0.4575 -0.81721,1.64722 -0.90632,2.10378 -0.0906,0.5485 0.006,1.91731 0.0985,2.37395 0.092,0.27392 0.73389,0.91065 0.8259,1.18443 0.002,0.54763 -0.35862,2.10205 -0.35644,2.64953 -0.0891,0.63957 0.38542,5.75237 0.38686,6.29999 7.3e-4,0.36564 -0.2695,1.3707 -0.26805,1.64542 0.001,0.73027 0.37455,2.9207 0.37673,3.65089 0.0949,1.09613 0.0362,10.68521 0.1304,11.78133 0.0927,0.27313 0.55132,0.81938 0.55205,1.00267 7.2e-4,0.45641 -0.43976,5.29805 -0.3463,5.75374 10e-4,0.27457 0.46076,1.18596 0.46149,1.55109 0.0934,0.5477 0.28254,2.46465 0.19343,3.10435 -0.0913,0.27458 -0.81938,0.82517 -1.00122,1.00774 0.18257,0.0906 0.73172,0.45497 0.82372,0.63681 0.55278,1.3678 0.31732,12.96729 0.32312,14.51982 0.001,0.5477 0.28182,2.37337 0.28327,3.01235 0.003,0.63971 -0.25212,6.30289 -0.25067,6.94115 0.003,0.73171 0.37455,2.73922 0.37672,3.3782 7.3e-4,0.18184 -0.2724,0.64043 -0.27095,0.82227 0.0913,0.18257 0.45859,0.72954 0.5506,1.00339 0.0942,0.63826 -0.52452,7.03388 -0.52234,7.58158 0.0927,0.36441 1.00846,1.18451 1.01063,1.54892 0.0913,0.36513 -0.54407,1.28086 -0.63463,1.64599 10e-4,0.27385 -0.35644,2.74067 0.007,3.10508 0.18257,0.0906 0.82227,0.27095 0.91428,0.45352 0.2753,0.54697 0.64768,2.37264 0.64913,2.92034 0.003,0.91283 -1.36563,1.28303 -0.72302,2.10241 0.18256,0.27385 1.09757,0.63608 1.18958,0.90993 0.092,0.0906 0.18546,0.63826 0.003,0.73027 -0.0913,0.18256 -0.91283,0.18546 -1.00339,0.36803 -0.0891,0.63971 0.1,2.46609 0.28327,3.01307 0.0927,0.18257 0.73172,0.0891 0.73244,0.27168 0.54987,0.8201 -0.72519,1.82928 -1.362,2.47044 0.36658,0.27312 1.37359,0.99977 1.55688,1.3649 0.0927,0.45642 -0.35934,1.82711 -0.2666,2.28353 0.0927,0.27385 0.73316,0.72881 0.73389,1.00266 0.002,0.45642 -0.63319,1.73728 -0.72303,2.10314 7.3e-4,0.27313 0.55133,0.91138 0.55205,1.18523 -0.0898,0.45642 -1.36418,1.64745 -0.54045,2.1937 0.27457,0.27312 1.18885,0.63463 1.37287,0.90776 0.0913,0.18257 0.0935,0.82227 0.004,1.00484 0,0.18329 -0.72954,0.36803 -0.63826,0.64115 0.18402,0.27313 0.91718,1.00195 1.00991,1.36635 0.092,0.27385 0.004,1.09613 0.004,1.36998 -0.36441,0.002 -1.46053,0.006 -1.82639,0.007 0.001,0.5477 0.0993,2.2828 0.19198,2.8305 0.0927,0.18184 0.63971,0.27168 0.64116,0.45424 0.18329,0.36441 0.55277,1.45981 0.64478,1.82422 0.18256,-0.092 0.63826,-0.45931 0.72809,-0.64188 0.18329,-0.092 0.36368,-0.73172 0.54625,-0.823 0.0906,-0.092 0.63826,-0.003 0.73027,-0.003 0.0913,0 -7.3e-4,-0.18329 -7.3e-4,-0.27385 -0.64043,-0.27167 -2.01113,-0.63246 -2.28787,-1.27072 -7.3e-4,-0.18256 -0.003,-0.73026 -0.004,-1.00411 0.2753,-0.002 1.09685,0.17822 1.27942,-0.004 0.36441,-0.18474 1.18306,-1.10047 1.54819,-1.37577 -0.18402,-0.0906 -0.64043,-0.27167 -0.64188,-0.45424 -7.3e-4,-0.36513 0.54408,-1.28086 0.45134,-1.646 -0.0927,-0.45569 -1.92346,-1.72786 -1.4685,-2.27773 0.36369,-0.36658 1.64093,-0.82734 1.45619,-1.37504 -0.092,-0.36441 -0.73461,-1.45836 -0.73679,-1.82349 -10e-4,-0.45714 0.45062,-1.82857 0.4499,-2.28498 0.0891,-0.45642 -0.0985,-2.00823 -0.007,-2.55666 0.0906,-0.18329 0.81938,-0.73316 0.90921,-1.00773 0.0913,-0.27385 0.17098,-3.37966 0.26154,-3.74479 0,-0.092 0.36368,-0.45859 0.36368,-0.64115 0.0891,-0.5477 0.26588,-2.28353 0.26371,-2.83196 0,-0.0913 -0.45642,-0.18111 -0.36514,-0.27312 -7.2e-4,-0.27385 0.63464,-1.18886 0.72447,-1.46343 0.0906,-0.36513 -0.19415,-3.56077 -0.0145,-3.74406 0.27312,-0.45714 1.73293,-0.91935 2.18789,-1.19465 0.092,0 0.27458,0.0913 0.27458,0 0.27095,-0.64043 -2.10386,-0.9976 -2.28715,-1.18016 -0.18402,-0.4557 0.17604,-1.9184 0.44917,-2.28426 0.18112,-0.2753 1.45981,-0.18763 1.73365,-0.37165 1.27507,-0.82662 1.04541,-1.15553 0.85705,-2.61606 7.3e-4,0.0913 -0.22676,0.058 -0.22531,0.2398 -0.2753,-0.0906 -1.18813,-0.17822 -1.37142,-0.36079 -0.18329,-0.18184 -0.003,-0.91283 -0.004,-1.1874 0.092,0.0906 1.00557,0.27095 1.19031,0.72664 1.09395,-0.46004 0.72447,-1.646 0.63029,-2.55883 -0.19416,-3.47021 0.80995,-3.56439 0.98093,-7.03532 0.0898,-0.54843 -0.007,-2.19153 -0.1,-2.73923 -0.0927,-0.18256 -0.64115,-0.54625 -0.64188,-0.8201 -7.2e-4,-0.0913 0.81648,-1.37287 0.81576,-1.55543 0.0906,-0.63971 -0.28182,-2.55593 -0.19271,-3.19564 -7.3e-4,-0.092 0.45569,-0.2753 0.45496,-0.45786 0.1775,-1.46198 -0.94326,-9.03777 -0.49119,-10.50047 -7.2e-4,-0.18329 0.54553,-0.45859 0.63681,-0.64116 0.0898,-0.27457 -0.0949,-1.00411 -0.004,-1.27941 0.26661,-2.37481 0.8998,-4.11209 0.16084,-6.30144 0,-0.18257 -0.823,-0.45352 -0.82373,-0.72737 -0.002,-0.45714 1.08236,-4.02225 1.08091,-4.47867 0.0891,-0.73099 -0.029,-8.21911 -0.12026,-8.85809 -10e-4,-0.18257 -0.54987,-0.36369 -0.5506,-0.54625 -7.2e-4,-0.18257 0.36296,-0.82373 0.36224,-1.00557 0.72157,-2.83412 0.26153,-3.83679 0.25356,-6.02831 -10e-4,-0.36586 0.1775,-1.64455 0.26733,-2.10169 0,-0.0906 0.27313,-0.18329 0.27313,-0.27457 -0.092,-0.18257 -0.36803,-0.72954 -0.46076,-1.00339 -10e-4,-0.63899 0.35716,-2.74031 0.26225,-3.47079 -0.0949,-1.46075 -1.28593,-2.27861 -0.83169,-3.28548 0.0898,-0.18278 0.81938,-0.64122 0.81865,-0.82401 0.0891,-0.54849 -0.0992,-2.19123 -0.28254,-2.64786 -0.001,-0.18279 -0.45859,-0.45482 -0.45931,-0.63761 -0.092,-0.36477 -0.0956,-1.27804 -0.006,-1.64368 0.0906,-0.36564 0.72592,-1.55536 0.72447,-2.01192 0.1775,-1.46176 -0.30573,-9.58807 -0.3108,-10.86603 0.0906,-0.45751 0.45062,-1.82828 0.4499,-2.28484 -0.002,-0.45663 -0.46366,-1.91658 -0.46439,-2.37322 0.0891,-0.63941 0.63102,-2.37669 0.62812,-3.01524 0.17749,-1.64455 -0.69115,-15.70593 -0.51437,-17.3496 -7.3e-4,-0.27465 0.45424,-0.82402 0.45279,-1.00687 0.0913,-0.18279 0.0652,-7.03207 0.15793,-7.39771 -7.2e-4,-0.27385 0.27023,-1.09692 0.17895,-1.36983 -0.003,-0.82227 -0.28472,-3.19542 -0.37818,-4.01769 -0.005,-1.18704 0.0507,-11.41533 0.13983,-12.51145 -0.002,-0.54763 0.45062,-2.01019 0.44844,-2.55861 -7.2e-4,-0.18293 -0.3673,-0.54669 -0.3673,-0.72954 -0.003,-0.54763 0.17459,-2.10118 0.0819,-2.64874 -0.003,-0.63941 -0.28254,-2.64692 -0.19416,-3.37827 -7.2e-4,-0.36477 0.63609,-1.28057 0.63392,-1.64621 0,-0.18199 -0.64116,-0.63689 -0.64188,-0.8196 -0.092,-0.27298 0.17894,-1.0052 0.17822,-1.2789 0.0891,-0.63949 -0.0993,-2.46501 -0.10143,-3.1045 -0.003,-0.91327 0.44048,-4.84178 0.25574,-5.57212 -7.3e-4,-0.091 -0.45859,-0.36303 -0.5506,-0.45482 -0.001,-0.63942 0.62304,-5.20742 0.24125,-10.13736 -0.001,-0.18286 -0.27675,-0.72962 -0.27747,-0.9124 -0.004,-1.00506 0.0782,-3.9267 0.16662,-4.84076 -10e-4,-0.45664 0.26878,-1.64462 0.17605,-2.00932 -0.001,-0.18286 -0.27602,-0.45576 -0.36803,-0.63862 -7.2e-4,-0.2737 0.1688,-4.10948 0.1688,-4.10948 -7.2e-4,-0.27465 0.63754,-0.55024 0.63681,-0.82488 -7.2e-4,-0.36485 -0.55277,-1.550006 -0.6455,-2.006636 -0.2782,-1.27717 -1.59456,-12.50609 -1.69091,-13.87592 -0.002,-0.63855 0.17459,-2.46595 -0.007,-3.1045 -0.3702,-1.45995 -4.21424,-4.00429 -2.39727,-6.75024 z" /><path
         inkscape:connector-curvature="0"
         id="path760"
         style="fill:#000000;fill-opacity:1;fill-rule:nonzero;stroke:none"
         d="m 110.01107,83.632634 -9.47172,0 -2.24948,11.69809 c -7.93149,-10.58422 -15.15373,-14.0658 -25.45352,-14.0658 -25.33471,0 -40.4899,23.675306 -40.4899,52.085246 0,28.41001 15.15519,52.08453 40.4899,52.08453 18.46891,0 33.97764,-11.55899 36.22711,-33.98039 l -14.44303,0 c -1.42068,13.0911 -11.12858,19.77535 -21.78408,19.77535 -18.11392,0 -25.69043,-18.80065 -25.69043,-37.87949 0,-19.07971 7.57651,-37.880276 25.69043,-37.880276 15.15373,-0.27827 23.44095,10.445036 23.67785,27.296066 l -22.49407,0 0,13.23026 35.99094,0 0,-52.363586 z" /><path
         inkscape:connector-curvature="0"
         id="path762"
         style="fill:#000000;fill-opacity:1;fill-rule:nonzero;stroke:none"
         d="m 128.33002,115.52437 c 0,-11.28072 5.20893,-21.307526 16.45633,-21.307526 7.81341,0 12.54927,4.0382 14.91683,11.976356 l 12.78617,0 c -2.96018,-15.736276 -14.32566,-24.510046 -27.703,-24.510046 -19.17962,0 -29.95321,15.73628 -29.95321,37.879416 0,20.47192 11.36549,38.01952 29.59822,38.01952 19.2977,0 31.13627,-20.47192 28.88606,-42.05772 l -44.9874,0 m 31.49198,10.44418 c -0.47381,10.02767 -6.27536,19.07978 -15.39064,19.07978 -9.35363,0 -15.74635,-8.3556 -16.10134,-19.07978 l 31.49198,0 z" /><path
         inkscape:connector-curvature="0"
         id="path764"
         style="fill:#000000;fill-opacity:1;fill-rule:nonzero;stroke:none"
         d="m 178.62924,155.63255 12.78617,0 0,-10.58422 0.23762,-0.27834 c 4.02443,7.93736 11.01049,12.8121 19.0608,12.8121 13.25925,0 21.66528,-8.35647 21.66528,-24.51106 l 0,-49.438396 -13.49688,0 0,45.261106 c -0.2369,11.27978 -4.02515,16.15459 -11.95665,16.15459 -8.99791,0 -14.79947,-8.3556 -14.79947,-18.93974 l 0,-42.475956 -13.49687,0 0,71.999916 z" /><path
         inkscape:connector-curvature="0"
         id="path766"
         style="fill:#000000;fill-opacity:1;fill-rule:nonzero;stroke:none"
         d="m 238.64577,155.63255 12.78689,0 0,-10.58422 0.23618,-0.27834 c 4.02588,7.93736 11.01049,12.8121 19.06153,12.8121 13.25925,0 21.66455,-8.35647 21.66455,-24.51106 l 0,-49.438396 -13.49543,0 0,45.261106 c -0.23763,11.27978 -4.02588,16.15459 -11.9581,16.15459 -8.99719,0 -14.79875,-8.3556 -14.79875,-18.93974 l 0,-42.475956 -13.49687,0 0,71.999916 z" /><path
         inkscape:connector-curvature="0"
         id="path768"
         style="fill:#000000;fill-opacity:1;fill-rule:nonzero;stroke:none"
         d="m 310.38278,115.52437 c 0,-11.28072 5.20894,-21.307526 16.45561,-21.307526 7.81413,0 12.54999,4.0382 14.91756,11.976356 l 12.78617,0 c -2.96019,-15.736276 -14.32567,-24.510046 -27.70373,-24.510046 -19.17889,0 -29.95321,15.73628 -29.95321,37.879416 0,20.47192 11.36693,38.01952 29.59822,38.01952 19.2977,0 31.13626,-20.47192 28.88751,-42.05772 l -44.98813,0 m 31.49198,10.44418 c -0.47453,10.02767 -6.27463,19.07978 -15.39136,19.07978 -9.35218,0 -15.74563,-8.3556 -16.10062,-19.07978 l 31.49198,0 z" /><path
         inkscape:connector-curvature="0"
         id="path770"
         style="fill:#000000;fill-opacity:1;fill-rule:nonzero;stroke:none"
         d="m 349.79032,155.63255 14.68066,0 15.50945,-55.288 0.2369,0 14.91756,55.288 13.96923,0 -21.90218,-71.999916 -15.15373,0 -22.25789,71.999916 z" /><path
         inkscape:connector-curvature="0"
         id="path772"
         style="fill:#000000;fill-opacity:1;fill-rule:nonzero;stroke:none"
         d="m 411.08844,155.63255 13.49687,0 0,-71.999916 -13.49687,0 0,71.999916 m 0,27.43437 13.49687,0 0,-15.03985 -13.49687,0 0,15.03985 z" /><path
         inkscape:connector-curvature="0"
         id="path774"
         style="fill:#000000;fill-opacity:1;fill-rule:nonzero;stroke:none"
         d="m 492.37396,155.63255 13.49688,0 0,-71.999916 -13.49688,0 0,71.999916 m 0,27.43437 13.49688,0 0,-15.03985 -13.49688,0 0,15.03985 z" /><path
         inkscape:connector-curvature="0"
         id="path776"
         style="fill:#000000;fill-opacity:1;fill-rule:nonzero;stroke:none"
         d="m 523.97824,115.52437 c 0,-11.28072 5.20961,-21.307526 16.45631,-21.307526 7.8142,0 12.55,4.0382 14.9176,11.976356 l 12.7861,0 c -2.9601,-15.736276 -14.3256,-24.510046 -27.7037,-24.510046 -19.17887,0 -29.95174,15.73628 -29.95174,37.879416 0,20.47192 11.36548,38.01952 29.59674,38.01952 19.2977,0 31.1363,-20.47192 28.8875,-42.05772 l -44.98881,0 m 31.49271,10.44418 c -0.4738,10.02767 -6.2754,19.07978 -15.3914,19.07978 -9.3529,0 -15.74632,-8.3556 -16.10131,-19.07978 l 31.49271,0 z" /><path
         inkscape:connector-curvature="0"
         id="path778"
         style="fill:#000000;fill-opacity:1;fill-rule:nonzero;stroke:none"
         d="m 573.33205,155.63255 12.6681,0 0,-13.92678 0.2369,0 c 1.538,7.65989 9.589,15.87632 17.8762,15.87632 3.0783,0 3.9071,-0.27826 5.0909,-0.41744 l 0,-15.31985 c -1.8945,0.27921 -3.9071,0.69658 -5.8016,0.69658 -9.234,0 -16.5744,-8.77377 -16.5744,-24.65009 l 0,-34.258656 -13.4961,0 0,71.999916 z" /><path
         inkscape:connector-curvature="0"
         id="path780"
         style="fill:#000000;fill-opacity:1;fill-rule:nonzero;stroke:none"
         d="m 623.38415,106.75053 c 0.7108,-9.191126 6.6297,-12.533686 13.8519,-12.533686 5.0909,0 13.9692,1.25305 13.615,9.470266 -0.355,8.3556 -10.1817,9.33038 -20.0084,11.97636 -9.9448,2.50696 -19.6527,6.68432 -19.6527,21.3076 0,15.73628 14.4437,20.61102 25.5723,20.61102 12.5493,0 23.9148,-6.12778 25.5723,-22.1432 l -14.0887,0 c -1.1838,7.52079 -6.5116,9.60944 -12.4305,9.60944 -3.907,0 -11.1293,-1.11394 -11.1293,-7.38083 0,-7.79891 9.9448,-8.91293 19.8896,-11.55891 9.8275,-2.64606 19.7708,-6.82429 19.7708,-21.02934 0,-17.129216 -14.6799,-23.396096 -27.3473,-23.396096 -15.3906,0 -26.8749,8.07726 -27.1118,25.067376 l 13.4968,0 z" /></g><g
       id="g6671"><path
         inkscape:connector-curvature="0"
         id="path782"
         style="fill:#ed1c24;fill-opacity:1;fill-rule:nonzero;stroke:none"
         d="m 190.89741,179.49332 -5.5719,0 -13.00278,36.84046 5.31471,0 10.52582,-31.93898 0.10287,0 10.62943,31.93898 5.10823,0 -13.10638,-36.84046 z" /><path
         inkscape:connector-curvature="0"
         id="path784"
         style="fill:#ed1c24;fill-opacity:1;fill-rule:nonzero;stroke:none"
         d="m 207.453,216.33378 4.90176,0 0,-36.84046 -4.90176,0 0,36.84046 z" /><path
         inkscape:connector-curvature="0"
         id="path786"
         style="fill:#ed1c24;fill-opacity:1;fill-rule:nonzero;stroke:none"
         d="m 219.56903,216.33378 4.90104,0 0,-32.71221 20.24531,0 0,-4.12825 -25.14635,0 0,36.84046 z" /><path
         inkscape:connector-curvature="0"
         id="path788"
         style="fill:#ed1c24;fill-opacity:1;fill-rule:nonzero;stroke:none"
         d="m 247.47778,216.33378 4.90177,0 0,-32.71221 19.84612,0 0,-4.12825 -24.74789,0 0,36.84046 z" /><path
         inkscape:connector-curvature="0"
         id="path790"
         style="fill:#ed1c24;fill-opacity:1;fill-rule:nonzero;stroke:none"
         d="m 275.0272,216.33378 27.66243,0 0,-4.12738 -22.76139,0 0,-11.71323 21.36824,0 0,-4.12738 -21.36824,0 0,-12.74422 22.91643,0 0,-4.12825 -27.81747,0 0,36.84046 z" /><path
         inkscape:connector-curvature="0"
         id="path792"
         style="fill:#ed1c24;fill-opacity:1;fill-rule:nonzero;stroke:none"
         d="m 322.8183,216.33378 12.90064,0 c 11.585,0 18.06248,-5.67557 18.06248,-17.54311 0,-12.33128 -5.52915,-19.29735 -18.06248,-19.29735 l -12.90064,0 0,36.84046 m 5.00319,-32.71221 8.31982,0 c 3.42239,0 12.63765,0.92841 12.63765,14.49845 0,8.77116 -3.31735,14.08638 -12.53261,14.08638 l -8.42486,0 0,-28.58483 z" /><path
         inkscape:connector-curvature="0"
         id="path794"
         style="fill:#ed1c24;fill-opacity:1;fill-rule:nonzero;stroke:none"
         d="m 357.816,216.33378 27.60665,0 0,-4.12738 -22.70489,0 0,-11.71323 21.31173,0 0,-4.12738 -21.31173,0 0,-12.74422 22.8592,0 0,-4.12825 -27.76096,0 0,36.84046 z" /></g></g></svg>